<?xml version="1.0" standalone="no"?>
<!DOCTYPE svg PUBLIC "-//W3C//DTD SVG 20010904//EN"
 "http://www.w3.org/TR/2001/REC-SVG-20010904/DTD/svg10.dtd">
<svg version="1.0" xmlns="http://www.w3.org/2000/svg"
 width="1062.000000pt" height="1062.000000pt" viewBox="0 0 1062.000000 1062.000000"
 preserveAspectRatio="xMidYMid meet">
<metadata>
Created by potrace 1.11, written by Peter Selinger 2001-2013
</metadata>
<g transform="translate(0.000000,1062.000000) scale(0.100000,-0.100000)"
fill="#000000" stroke="none">
<path d="M5848 10615 c-2 -2 -62 -6 -134 -9 -72 -4 -142 -9 -155 -11 -13 -2
-54 -6 -91 -10 -37 -3 -77 -8 -90 -10 -13 -2 -45 -6 -73 -10 -27 -3 -57 -8
-65 -10 -8 -2 -37 -6 -64 -10 -80 -10 -291 -53 -421 -86 -66 -17 -127 -32
-135 -34 -36 -8 -313 -97 -362 -116 -29 -11 -73 -28 -98 -36 -25 -8 -58 -21
-75 -28 -16 -8 -59 -26 -95 -40 -159 -65 -409 -189 -597 -296 -426 -244 -918
-637 -1238 -990 -127 -140 -209 -237 -328 -389 -164 -209 -349 -501 -499 -790
-107 -205 -256 -560 -318 -755 -54 -171 -72 -232 -76 -255 -2 -14 -9 -36 -14
-50 -9 -25 -46 -173 -54 -220 -2 -14 -11 -59 -20 -100 -8 -41 -17 -86 -20
-100 -4 -23 -8 -49 -21 -125 -3 -16 -8 -50 -11 -75 -3 -25 -7 -56 -9 -70 -2
-14 -7 -52 -10 -85 -4 -33 -9 -73 -11 -90 -25 -200 -25 -862 0 -1015 3 -14 7
-54 11 -90 8 -84 9 -90 32 -240 4 -31 67 -354 78 -405 36 -162 180 -603 256
-785 62 -148 197 -430 267 -555 330 -595 792 -1140 1334 -1573 501 -399 1058
-699 1663 -895 130 -42 239 -75 275 -82 8 -2 44 -11 80 -20 36 -8 73 -18 83
-20 10 -2 26 -6 35 -9 9 -3 35 -7 57 -11 22 -3 56 -10 75 -15 19 -5 51 -11 70
-14 19 -3 49 -8 65 -11 143 -24 193 -31 285 -40 36 -4 76 -8 90 -11 163 -26
820 -26 1055 0 17 2 58 7 93 11 35 3 71 8 80 10 9 1 42 6 72 10 30 4 64 9 75
11 10 2 37 6 60 10 22 3 103 19 180 35 77 17 151 32 165 35 55 11 283 76 410
117 214 70 607 232 740 306 8 4 56 30 105 56 228 122 540 324 715 462 129 101
272 221 351 293 96 88 213 209 226 234 61 116 38 254 -56 339 -56 50 -104 69
-181 70 -97 1 -145 -26 -292 -165 -257 -243 -598 -502 -833 -633 -11 -6 -52
-30 -90 -52 -73 -42 -279 -148 -398 -203 -294 -135 -773 -285 -1077 -335 -19
-3 -42 -8 -50 -10 -16 -4 -49 -9 -135 -21 -27 -3 -57 -7 -65 -9 -8 -2 -46 -6
-85 -10 -38 -4 -81 -8 -95 -10 -161 -23 -699 -23 -890 0 -19 2 -60 7 -90 10
-726 80 -1437 335 -2062 741 -612 398 -1157 973 -1521 1607 -72 125 -193 366
-241 482 -20 50 -41 99 -46 110 -65 140 -197 567 -235 760 -5 22 -9 45 -11 50
-6 29 -35 185 -40 215 -2 19 -7 45 -9 56 -3 12 -8 52 -11 90 -3 38 -8 71 -9
74 -2 4 -7 49 -11 100 -3 52 -9 127 -13 165 -12 135 -2 641 14 726 2 11 7 48
10 82 3 35 7 71 9 82 2 11 7 45 11 75 4 30 9 62 10 71 2 9 6 34 9 55 4 22 16
82 27 134 11 52 23 106 25 120 20 108 121 447 178 595 73 188 212 495 270 595
8 14 40 70 72 125 106 187 316 490 434 629 466 549 930 920 1530 1224 217 110
424 197 635 267 127 42 370 110 433 121 14 3 29 7 32 9 4 2 22 7 41 10 19 3
66 12 104 20 75 15 129 24 185 31 19 2 44 6 55 8 11 3 47 7 80 11 33 3 69 8
80 10 138 27 773 27 1005 0 37 -5 187 -24 230 -30 101 -14 297 -54 440 -91
626 -161 1167 -419 1675 -799 170 -128 296 -235 484 -415 82 -78 128 -102 214
-108 60 -4 74 -2 130 26 132 65 188 202 142 343 -15 43 -35 70 -109 144 -307
306 -721 618 -1107 835 -109 61 -418 212 -539 263 -230 98 -509 190 -790 262
-66 17 -407 84 -455 89 -33 4 -69 9 -80 11 -11 2 -42 7 -70 10 -27 4 -64 8
-81 10 -18 3 -62 7 -98 10 -36 3 -96 8 -133 11 -66 5 -550 13 -555 9z"/>
<path d="M6007 8464 c-1 -1 -54 -5 -117 -9 -63 -3 -128 -8 -145 -10 -16 -2
-55 -6 -85 -9 -30 -4 -62 -8 -70 -11 -8 -2 -35 -7 -60 -10 -239 -33 -574 -140
-864 -275 -120 -56 -184 -140 -192 -251 -10 -161 114 -293 276 -292 57 0 79 6
175 50 61 28 128 58 150 67 85 36 310 108 375 120 14 2 57 11 95 19 39 9 90
18 115 22 25 3 56 8 70 10 72 13 165 18 350 19 200 1 278 -4 410 -25 150 -23
174 -28 299 -61 568 -149 1072 -478 1446 -943 148 -183 327 -491 404 -695 18
-47 37 -94 42 -105 27 -64 97 -336 113 -441 3 -21 8 -50 11 -64 32 -180 37
-566 10 -731 -2 -13 -9 -60 -15 -104 -19 -133 -89 -408 -125 -490 -7 -16 -23
-57 -35 -90 -30 -77 -124 -273 -169 -350 -320 -549 -808 -968 -1387 -1193
-112 -43 -246 -87 -294 -97 -8 -2 -35 -8 -60 -14 -65 -17 -195 -40 -300 -56
-67 -9 -256 -19 -365 -19 -179 1 -303 15 -540 59 -403 75 -871 308 -1225 609
-80 68 -271 267 -341 356 -410 514 -611 1096 -604 1740 2 113 5 228 9 255 5
45 18 142 21 155 0 3 4 28 9 55 20 133 88 366 152 528 51 126 54 136 55 192 2
144 -107 263 -254 273 -74 6 -130 -10 -189 -54 -39 -28 -55 -50 -92 -126 -46
-96 -134 -347 -161 -459 -9 -35 -18 -71 -20 -79 -21 -76 -57 -294 -70 -415
-23 -230 -23 -506 0 -695 3 -19 7 -57 10 -85 3 -27 7 -61 10 -75 3 -14 8 -38
10 -55 71 -421 246 -868 484 -1230 181 -277 372 -493 640 -728 17 -15 80 -64
139 -107 59 -44 112 -83 117 -88 106 -83 460 -272 645 -345 211 -83 461 -155
630 -182 19 -3 46 -7 60 -10 266 -50 712 -54 1005 -10 17 3 48 7 70 11 22 3
81 14 130 25 50 11 100 22 112 25 93 19 366 108 460 150 17 8 34 14 38 14 14
0 262 124 353 177 270 156 478 316 702 542 361 363 627 793 786 1268 39 117
94 317 107 393 25 135 29 164 42 270 26 212 26 622 0 782 -2 13 -9 59 -15 103
-12 82 -16 102 -25 145 -3 14 -7 36 -10 50 -15 80 -63 250 -102 364 -210 614
-590 1148 -1099 1544 -116 90 -249 182 -264 182 -5 0 -10 4 -10 9 0 5 -8 11
-17 15 -10 3 -40 20 -67 36 -282 177 -735 344 -1101 405 -16 2 -41 7 -55 9
-26 5 -105 16 -155 21 -87 9 -432 24 -438 19z"/>
<path d="M3820 7470 c-63 -30 -134 -108 -151 -167 -51 -182 65 -350 248 -359
89 -4 146 18 208 80 132 133 99 351 -66 438 -63 33 -177 37 -239 8z"/>
<path d="M7855 5439 c-82 -15 -98 -23 -149 -73 -67 -65 -83 -113 -91 -271 -13
-272 -97 -532 -249 -764 -30 -46 -59 -87 -63 -90 -5 -3 -21 -23 -37 -44 -42
-57 -146 -159 -230 -225 -186 -149 -434 -263 -652 -301 -33 -6 -72 -13 -89
-16 -16 -3 -79 -7 -140 -10 -155 -7 -222 -33 -281 -112 -113 -147 -48 -366
127 -428 45 -16 166 -21 264 -10 28 3 66 7 85 10 79 8 173 26 262 49 505 132
936 444 1230 891 117 178 231 447 274 645 4 19 9 40 10 45 11 43 24 123 29
172 3 32 8 74 10 93 11 85 6 217 -9 259 -45 124 -176 202 -301 180z"/>
</g>
</svg>
